<?xml version="1.0" encoding="UTF-8" standalone="no"?><!DOCTYPE svg PUBLIC "-//W3C//DTD SVG 1.1//EN" "http://www.w3.org/Graphics/SVG/1.1/DTD/svg11.dtd"><svg width="100%" height="100%" viewBox="0 0 128 128" version="1.1" xmlns="http://www.w3.org/2000/svg" xmlns:xlink="http://www.w3.org/1999/xlink" xml:space="preserve" xmlns:serif="http://www.serif.com/" style="fill-rule:evenodd;clip-rule:evenodd;stroke-linejoin:round;stroke-miterlimit:2;"><rect id="Favicon---Square---Black-and-White---Transparent---Light-on-Dark" serif:id="Favicon - Square - Black and White - Transparent - Light on Dark" x="0" y="0" width="128" height="128" style="fill:none;"/><g><g><path d="M47.423,47.284l-14.993,2.644c-2.758,0.486 -4.603,3.121 -4.117,5.879c0.487,2.758 3.121,4.603 5.879,4.116l14.994,-2.643c2.758,-0.487 4.603,-3.121 4.116,-5.879c-0.486,-2.759 -3.12,-4.603 -5.879,-4.117Z" style="fill:#00695c;stroke:#000;stroke-width:16px;"/><path d="M79.172,51.992c2.76,-0.486 4.603,-3.119 4.117,-5.879c-1.947,-11.04 -12.476,-18.413 -23.516,-16.466c-11.041,1.947 -18.413,12.475 -16.466,23.516c0.486,2.76 3.119,4.603 5.879,4.117l29.986,-5.288Zm-8.101,-8.878c-2.252,-2.684 -5.837,-4.124 -9.536,-3.471c-3.699,0.652 -6.574,3.231 -7.773,6.524l17.309,-3.053Z" style="fill:#00695c;stroke:#000;stroke-width:16px;"/><path d="M78.291,46.995c-1.46,-8.281 -9.356,-13.81 -17.637,-12.35c-8.281,1.46 -13.81,9.356 -12.35,17.637l14.994,-2.644l14.993,-2.643Z" style="fill:#00695c;stroke:#000;stroke-width:16px;stroke-linecap:round;stroke-miterlimit:1.5;"/></g><path d="M64.087,82.182l6.812,-22.902c0.798,-2.684 3.626,-4.215 6.311,-3.417c2.684,0.799 4.216,3.627 3.417,6.311l-9.706,32.63c-0.548,1.843 -2.09,3.218 -3.983,3.551c-1.893,0.334 -3.812,-0.43 -4.957,-1.974l-20.281,-27.343c-1.668,-2.25 -1.197,-5.431 1.053,-7.099c2.25,-1.669 5.431,-1.197 7.099,1.052l14.235,19.191Z" style="fill:#6a1b9a;stroke:#000;stroke-width:16px;"/><path d="M94.689,88.507l-46.5,0c-2.805,0 -5.082,2.277 -5.082,5.082c0,2.804 2.277,5.081 5.082,5.081l46.5,0c2.804,0 5.081,-2.277 5.081,-5.081c0,-2.805 -2.277,-5.082 -5.081,-5.082Z" style="fill:#6a1b9a;stroke:#000;stroke-width:16px;"/></g><g><g><path d="M47.423,47.284l-14.993,2.644c-2.758,0.486 -4.603,3.121 -4.117,5.879c0.487,2.758 3.121,4.603 5.879,4.116l14.994,-2.643c2.758,-0.487 4.603,-3.121 4.116,-5.879c-0.486,-2.759 -3.12,-4.603 -5.879,-4.117Z" style="fill:#fff;"/><path d="M79.172,51.992c2.76,-0.486 4.603,-3.119 4.117,-5.879c-1.947,-11.04 -12.476,-18.413 -23.516,-16.466c-11.041,1.947 -18.413,12.475 -16.466,23.516c0.486,2.76 3.119,4.603 5.879,4.117l29.986,-5.288Zm-8.101,-8.878c-2.252,-2.684 -5.837,-4.124 -9.536,-3.471c-3.699,0.652 -6.574,3.231 -7.773,6.524l17.309,-3.053Z" style="fill:#fff;"/><path d="M78.291,46.995c-1.46,-8.281 -9.356,-13.81 -17.637,-12.35c-8.281,1.46 -13.81,9.356 -12.35,17.637l14.994,-2.644l14.993,-2.643Z" style="fill:#fff;"/></g><path d="M64.087,82.182l6.812,-22.902c0.798,-2.684 3.626,-4.215 6.311,-3.417c2.684,0.799 4.216,3.627 3.417,6.311l-9.706,32.63c-0.548,1.843 -2.09,3.218 -3.983,3.551c-1.893,0.334 -3.812,-0.43 -4.957,-1.974l-20.281,-27.343c-1.668,-2.25 -1.197,-5.431 1.053,-7.099c2.25,-1.669 5.431,-1.197 7.099,1.052l14.235,19.191Z" style="fill:#fff;"/><path d="M94.689,88.507l-46.5,0c-2.805,0 -5.082,2.277 -5.082,5.082c0,2.804 2.277,5.081 5.082,5.081l46.5,0c2.804,0 5.081,-2.277 5.081,-5.081c0,-2.805 -2.277,-5.082 -5.081,-5.082Z" style="fill:#fff;"/></g><path d="M53.524,60.725l13.396,-2.425l-4.137,15.729l-9.259,-13.304Z"/></svg>