<?xml version="1.0" encoding="UTF-8" standalone="no"?><!DOCTYPE svg PUBLIC "-//W3C//DTD SVG 1.1//EN" "http://www.w3.org/Graphics/SVG/1.1/DTD/svg11.dtd"><svg width="100%" height="100%" viewBox="0 0 5056 3456" version="1.1" xmlns="http://www.w3.org/2000/svg" xmlns:xlink="http://www.w3.org/1999/xlink" xml:space="preserve" xmlns:serif="http://www.serif.com/" style="fill-rule:evenodd;clip-rule:evenodd;stroke-linejoin:round;stroke-miterlimit:2;"><rect id="Soap-Bubbles---White---Transparent---Light-on-Dark" serif:id="Soap Bubbles - White - Transparent - Light on Dark" x="0" y="-0" width="5056" height="3456" style="fill:none;"/><g><path d="M1710.38,1196.86c-252.109,-89.746 -487.91,27.649 -685.401,338.483c-167.157,263.092 -270.512,643.37 33.731,1048.47c282.316,375.903 738.969,310.487 990.891,-102.434c135.187,-221.582 258.613,-401.296 76.936,-790.5c-82.43,-176.587 -99.726,-381.375 -416.157,-494.019Z"/><path d="M4766.23,1405.61c-20.254,-156.91 -26.442,-518.345 -224.446,-693.58c-144.993,-128.319 -434.647,-145.246 -720.507,17.822c-266.073,151.78 -423.696,508.346 -480.02,676.344c-78.779,234.975 -50.094,590.468 -361.219,649.841c-131.737,25.139 -482.211,5.281 -534.611,271.724c-69.172,351.725 97.568,430.333 291.301,612.898c251.397,236.905 581.332,130.139 794.988,248.69c247.163,137.142 532.657,197.844 841.95,63.196c231.39,-100.734 499.009,-273.948 487.106,-525.202c-5.28,-111.464 71.667,-362.649 67.023,-508.333c-9.195,-288.448 -135.899,-614.563 -161.565,-813.4Z"/><path d="M2646.48,958.236c-250.086,-1.225 -279.62,133.808 -285.906,230.34c-18.111,278.166 160.426,336.689 258.478,349.428c206.972,26.889 312.619,-149.274 329.054,-248.386c37.884,-228.465 -98.456,-330.387 -301.626,-331.382Z"/><path d="M889.04,128.386c-439.217,18.138 -743.375,251.138 -760.53,548.622c-20.43,354.288 577.459,463.886 900.192,401.987c405.665,-77.806 406.58,-329.154 399.909,-392.929c-43.577,-416.578 -319.564,-566.765 -539.571,-557.68Z"/><path d="M301.635,1473.91c72.395,-33.375 114.038,2.599 150.324,32.592c63.165,52.211 63.292,155.737 52.919,190.303c-32.65,108.796 -134.469,104.154 -179.563,93.159c-66.369,-16.182 -79.942,-112.626 -86.761,-150.089c-11.791,-64.785 1.833,-137.729 63.081,-165.965Z"/><path d="M2794.36,281.542c-62.902,7.541 -73.362,50.37 -88.523,85.128c-50.467,115.696 46.049,131.407 83.054,142.333c88.918,26.257 117.012,-20.098 125.599,-51.743c14.248,-52.513 -12.681,-85.293 -27.862,-117.63c-17.595,-37.476 -61.434,-61.785 -92.268,-58.088Z"/><path d="M3314.84,194.15c-43.044,6.684 -88.25,15.998 -131.134,65.545c-28.009,32.36 -50.376,79.743 -43.641,122.594c21.994,139.936 94.1,137.891 145.67,136.159c62.384,-2.096 113.921,-16.537 154.146,-75.093c32.185,-46.853 109.243,-134.926 2.646,-220.012c-34.124,-27.237 -65.346,-38.873 -127.687,-29.193Z"/><path d="M2231.58,517.404c35.569,-52.028 240.583,-340.849 -278.959,-367.776c-404.286,-20.953 -327.028,282.207 -75.462,412.809c267.798,139.031 274.953,71.207 354.421,-45.033Z"/></g></svg>