<?xml version="1.0" encoding="UTF-8" standalone="no"?><!DOCTYPE svg PUBLIC "-//W3C//DTD SVG 1.1//EN" "http://www.w3.org/Graphics/SVG/1.1/DTD/svg11.dtd"><svg width="100%" height="100%" viewBox="0 0 346 128" version="1.1" xmlns="http://www.w3.org/2000/svg" xmlns:xlink="http://www.w3.org/1999/xlink" xml:space="preserve" xmlns:serif="http://www.serif.com/" style="fill-rule:evenodd;clip-rule:evenodd;stroke-linecap:round;stroke-linejoin:round;stroke-miterlimit:1.5;"><rect id="_-Logo---Horizontal---Black---Transparent---Dark-on-Light" serif:id=" Logo - Horizontal - Black - Transparent - Dark on Light" x="0" y="0" width="346" height="128" style="fill:none;"/><g><g><path d="M52.282,79.695l2.644,14.992" style="fill:none;stroke:#000;stroke-width:10px;"/><path d="M46.995,49.709c-8.281,1.46 -13.81,9.356 -12.35,17.636c1.46,8.281 9.356,13.81 17.637,12.35l-2.644,-14.993l-2.643,-14.993Z" style="stroke:#000;stroke-width:10px;"/><path d="M66.015,82.223l27.343,-20.281l-32.631,-9.705" style="fill:none;stroke:#000;stroke-width:10px;"/><path d="M93.589,33.311l0,46.499" style="fill:none;stroke:#000;stroke-width:10px;"/></g><path id="QueerMap" d="M133.62,66.144c-0,2.773 0.459,4.917 1.378,6.432c0.919,1.515 2.318,2.272 4.198,2.272c0.898,-0 1.742,-0.107 2.532,-0.32c0.791,-0.213 1.485,-0.491 2.084,-0.832l-0,-16.512c-0.385,-0.043 -0.908,-0.096 -1.571,-0.16c-0.662,-0.064 -1.357,-0.096 -2.083,-0.096c-2.179,-0 -3.814,0.864 -4.904,2.592c-1.09,1.728 -1.634,3.936 -1.634,6.624Zm-8.013,-0.256c-0,-2.304 0.32,-4.427 0.961,-6.368c0.641,-1.941 1.571,-3.595 2.789,-4.96c1.218,-1.365 2.735,-2.432 4.551,-3.2c1.816,-0.768 3.878,-1.152 6.186,-1.152c0.983,-0 2.019,0.043 3.109,0.128c1.09,0.085 2.147,0.203 3.173,0.352c1.025,0.149 1.998,0.32 2.916,0.512c0.919,0.192 1.72,0.395 2.404,0.608l0,39.68l-7.884,-0l-0,-11.392c-0.983,0.469 -2.019,0.843 -3.109,1.12c-1.09,0.277 -2.126,0.416 -3.109,0.416c-1.966,-0 -3.697,-0.373 -5.192,-1.12c-1.496,-0.747 -2.746,-1.803 -3.75,-3.168c-1.005,-1.365 -1.763,-3.019 -2.276,-4.96c-0.513,-1.941 -0.769,-4.107 -0.769,-6.496Z" style="fill-rule:nonzero;"/><path d="M173.875,42.208c0,1.536 -0.491,2.752 -1.474,3.648c-0.983,0.896 -2.158,1.344 -3.526,1.344c-1.367,-0 -2.532,-0.448 -3.493,-1.344c-0.962,-0.896 -1.442,-2.112 -1.442,-3.648c-0,-1.579 0.48,-2.816 1.442,-3.712c0.961,-0.896 2.126,-1.344 3.493,-1.344c1.368,-0 2.543,0.448 3.526,1.344c0.983,0.896 1.474,2.133 1.474,3.712Zm11.731,37.44c-1.624,0.768 -3.152,1.291 -4.583,1.568c-1.432,0.277 -2.746,0.416 -3.943,0.416c-2.051,-0 -3.771,-0.299 -5.16,-0.896c-1.389,-0.597 -2.5,-1.461 -3.333,-2.592c-0.833,-1.131 -1.421,-2.507 -1.763,-4.128c-0.342,-1.621 -0.513,-3.477 -0.513,-5.568l0,-11.072l-8.333,-0l0,-6.528l16.218,-0l-0,18.624c-0,1.792 0.331,3.125 0.993,4c0.663,0.875 1.763,1.312 3.302,1.312c0.726,-0 1.602,-0.096 2.628,-0.288c1.025,-0.192 2.179,-0.587 3.461,-1.184l1.026,6.336Z" style="fill-rule:nonzero;"/><path d="M189.708,66.144c0,-2.645 0.406,-4.971 1.218,-6.976c0.812,-2.005 1.881,-3.68 3.205,-5.024c1.325,-1.344 2.842,-2.357 4.552,-3.04c1.709,-0.683 3.461,-1.024 5.256,-1.024c4.444,-0 7.82,1.312 10.128,3.936c2.308,2.624 3.461,6.453 3.461,11.488c0,0.512 -0.01,1.045 -0.032,1.6c-0.021,0.555 -0.053,1.003 -0.096,1.344l-19.551,-0c0,1.963 0.812,3.509 2.436,4.64c1.624,1.131 3.718,1.696 6.282,1.696c1.581,-0 3.088,-0.171 4.519,-0.512c1.432,-0.341 2.639,-0.683 3.622,-1.024l1.09,6.72c-1.368,0.469 -2.821,0.864 -4.359,1.184c-1.539,0.32 -3.269,0.48 -5.192,0.48c-2.564,-0 -4.861,-0.331 -6.891,-0.992c-2.03,-0.661 -3.761,-1.643 -5.193,-2.944c-1.431,-1.301 -2.532,-2.912 -3.301,-4.832c-0.769,-1.92 -1.154,-4.16 -1.154,-6.72Zm20.192,-3.136c0,-0.811 -0.106,-1.589 -0.32,-2.336c-0.214,-0.747 -0.556,-1.419 -1.026,-2.016c-0.47,-0.597 -1.068,-1.077 -1.795,-1.44c-0.726,-0.363 -1.623,-0.544 -2.692,-0.544c-1.025,-0 -1.912,0.171 -2.66,0.512c-0.748,0.341 -1.368,0.811 -1.859,1.408c-0.491,0.597 -0.876,1.28 -1.154,2.048c-0.278,0.768 -0.459,1.557 -0.545,2.368l12.051,-0Z" style="fill-rule:nonzero;"/><path d="M231.759,62.752c0.769,-0.896 1.549,-1.845 2.34,-2.848c0.79,-1.003 1.56,-2.037 2.307,-3.104c0.748,-1.067 1.464,-2.101 2.148,-3.104c0.684,-1.003 1.282,-1.952 1.795,-2.848l9.487,-0c-0.77,0.981 -1.646,2.048 -2.629,3.2c-0.982,1.152 -1.997,2.325 -3.044,3.52c-1.047,1.195 -2.094,2.347 -3.141,3.456c-1.047,1.109 -1.998,2.133 -2.853,3.072c1.069,1.024 2.222,2.251 3.462,3.68c1.239,1.429 2.457,2.912 3.653,4.448c1.197,1.536 2.297,3.072 3.302,4.608c1.004,1.536 1.805,2.901 2.403,4.096l-9.038,-0c-0.513,-1.067 -1.186,-2.272 -2.019,-3.616c-0.833,-1.344 -1.72,-2.667 -2.66,-3.968c-0.94,-1.301 -1.891,-2.539 -2.853,-3.712c-0.961,-1.173 -1.848,-2.144 -2.66,-2.912l0,14.208l-7.949,-0l0,-43.072l7.949,-1.344l0,26.24Z" style="fill-rule:nonzero;"/><path d="M279.899,79.904c-1.453,0.384 -3.215,0.768 -5.288,1.152c-2.073,0.384 -4.327,0.576 -6.763,0.576c-2.478,-0 -4.508,-0.341 -6.089,-1.024c-1.582,-0.683 -2.832,-1.653 -3.75,-2.912c-0.919,-1.259 -1.55,-2.741 -1.891,-4.448c-0.342,-1.707 -0.513,-3.584 -0.513,-5.632l-0,-16.768l7.884,-0l0,15.744c0,2.773 0.331,4.832 0.994,6.176c0.662,1.344 1.955,2.016 3.878,2.016c1.197,-0 2.393,-0.107 3.59,-0.32l-0,-23.616l7.948,-0l0,29.056Z" style="fill-rule:nonzero;"/><path d="M305.989,65.696c-0,-2.816 -0.46,-4.971 -1.379,-6.464c-0.918,-1.493 -2.318,-2.24 -4.198,-2.24c-0.855,-0 -1.699,0.117 -2.532,0.352c-0.834,0.235 -1.549,0.523 -2.148,0.864l0,16.32c0.599,0.128 1.229,0.213 1.891,0.256c0.663,0.043 1.229,0.064 1.699,0.064c2.051,-0 3.675,-0.693 4.872,-2.08c1.196,-1.387 1.795,-3.744 1.795,-7.072Zm8.012,0.192c0,2.389 -0.32,4.555 -0.961,6.496c-0.641,1.941 -1.581,3.595 -2.821,4.96c-1.239,1.365 -2.756,2.421 -4.551,3.168c-1.795,0.747 -3.846,1.12 -6.154,1.12c-2.051,-0 -4.145,-0.149 -6.282,-0.448c-2.136,-0.299 -3.931,-0.683 -5.384,-1.152l-0,-42.176l7.884,-1.344l0,15.04c1.111,-0.512 2.18,-0.864 3.205,-1.056c1.026,-0.192 2.052,-0.288 3.077,-0.288c1.966,-0 3.697,0.373 5.193,1.12c1.495,0.747 2.745,1.813 3.749,3.2c1.005,1.387 1.763,3.04 2.276,4.96c0.513,1.92 0.769,4.053 0.769,6.4Z" style="fill-rule:nonzero;"/></g></svg>