<?xml version="1.0" encoding="UTF-8" standalone="no"?><!DOCTYPE svg PUBLIC "-//W3C//DTD SVG 1.1//EN" "http://www.w3.org/Graphics/SVG/1.1/DTD/svg11.dtd"><svg width="100%" height="100%" viewBox="0 0 128 128" version="1.1" xmlns="http://www.w3.org/2000/svg" xmlns:xlink="http://www.w3.org/1999/xlink" xml:space="preserve" xmlns:serif="http://www.serif.com/" style="fill-rule:evenodd;clip-rule:evenodd;stroke-linejoin:round;stroke-miterlimit:2;"><rect id="Favicon---Square---Black-and-White---Transparent---Light-on-Dark" serif:id="Favicon - Square - Black and White - Transparent - Light on Dark" x="0" y="0" width="128" height="128" style="fill:none;"/><g><path d="M47.284,80.577l2.644,14.993c0.486,2.758 3.121,4.603 5.879,4.117c2.758,-0.487 4.603,-3.121 4.116,-5.879l-2.643,-14.994c-0.487,-2.758 -3.121,-4.603 -5.879,-4.116c-2.759,0.486 -4.603,3.12 -4.117,5.879Z" style="stroke:#000;stroke-width:16px;"/><path d="M51.992,48.828c-0.486,-2.76 -3.119,-4.603 -5.879,-4.117c-11.04,1.947 -18.413,12.476 -16.466,23.516c1.947,11.041 12.475,18.413 23.516,16.466c2.76,-0.486 4.603,-3.119 4.117,-5.879l-5.288,-29.986Zm-8.878,8.101c-2.684,2.252 -4.124,5.837 -3.471,9.536c0.652,3.699 3.231,6.574 6.524,7.773l-3.053,-17.309Z" style="stroke:#000;stroke-width:16px;"/><path d="M46.995,49.709c-8.281,1.46 -13.81,9.356 -12.35,17.637c1.46,8.281 9.356,13.81 17.637,12.35l-2.644,-14.994l-2.643,-14.993Z" style="stroke:#000;stroke-width:16px;stroke-linecap:round;stroke-miterlimit:1.5;"/><path d="M82.182,63.913l-22.902,-6.812c-2.684,-0.798 -4.215,-3.626 -3.417,-6.311c0.799,-2.684 3.627,-4.216 6.311,-3.417l32.63,9.706c1.843,0.548 3.218,2.09 3.551,3.983c0.334,1.893 -0.43,3.812 -1.974,4.957l-27.343,20.281c-2.25,1.668 -5.431,1.197 -7.099,-1.053c-1.669,-2.25 -1.197,-5.431 1.052,-7.099l19.191,-14.235Z" style="stroke:#000;stroke-width:16px;"/><path d="M88.507,33.311l0,46.5c0,2.805 2.277,5.082 5.082,5.082c2.804,-0 5.081,-2.277 5.081,-5.082l0,-46.5c0,-2.804 -2.277,-5.081 -5.081,-5.081c-2.805,-0 -5.082,2.277 -5.082,5.081Z" style="stroke:#000;stroke-width:16px;"/></g><g><path d="M47.284,80.577l2.644,14.993c0.486,2.758 3.121,4.603 5.879,4.117c2.758,-0.487 4.603,-3.121 4.116,-5.879l-2.643,-14.994c-0.487,-2.758 -3.121,-4.603 -5.879,-4.116c-2.759,0.486 -4.603,3.12 -4.117,5.879Z" style="fill:#fff;"/><path d="M51.992,48.828c-0.486,-2.76 -3.119,-4.603 -5.879,-4.117c-11.04,1.947 -18.413,12.476 -16.466,23.516c1.947,11.041 12.475,18.413 23.516,16.466c2.76,-0.486 4.603,-3.119 4.117,-5.879l-5.288,-29.986Zm-8.878,8.101c-2.684,2.252 -4.124,5.837 -3.471,9.536c0.652,3.699 3.231,6.574 6.524,7.773l-3.053,-17.309Z" style="fill:#fff;"/><path d="M46.995,49.709c-8.281,1.46 -13.81,9.356 -12.35,17.637c1.46,8.281 9.356,13.81 17.637,12.35l-2.644,-14.994l-2.643,-14.993Z" style="fill:#fff;"/><path d="M82.182,63.913l-22.902,-6.812c-2.684,-0.798 -4.215,-3.626 -3.417,-6.311c0.799,-2.684 3.627,-4.216 6.311,-3.417l32.63,9.706c1.843,0.548 3.218,2.09 3.551,3.983c0.334,1.893 -0.43,3.812 -1.974,4.957l-27.343,20.281c-2.25,1.668 -5.431,1.197 -7.099,-1.053c-1.669,-2.25 -1.197,-5.431 1.052,-7.099l19.191,-14.235Z" style="fill:#fff;"/><path d="M88.507,33.311l0,46.5c0,2.805 2.277,5.082 5.082,5.082c2.804,-0 5.081,-2.277 5.081,-5.082l0,-46.5c0,-2.804 -2.277,-5.081 -5.081,-5.081c-2.805,-0 -5.082,2.277 -5.082,5.081Z" style="fill:#fff;"/></g><path d="M58.611,60.927l13.895,4.017l-11.57,8.574l-2.325,-12.591Z"/></svg>